<?xml version="1.0" standalone="no"?><!DOCTYPE svg PUBLIC "-//W3C//DTD SVG 1.1//EN" "http://www.w3.org/Graphics/SVG/1.1/DTD/svg11.dtd"><svg t="1761133112390" class="icon" viewBox="0 0 1024 1024" version="1.1" xmlns="http://www.w3.org/2000/svg" p-id="30440" xmlns:xlink="http://www.w3.org/1999/xlink" width="16" height="16"><path d="M950.857075 877.714286C950.857075 917.467426 917.467363 950.857138 877.714223 950.857138L143.908561 952.063995C104.155421 952.063995 71.935995 919.844569 71.935995 880.091429L73.142852 146.285767C73.142852 106.532627 106.532564 73.142915 146.285704 73.142915L548.571389 73.142915 548.571389 6.3e-05 146.285704 6.3e-05C66.815995 6.3e-05 0 81.2252 0 160.694909L0 880.091429C0 959.561137 64.438853 1023.99999 143.908561 1023.99999L863.305081 1023.99999C942.77479 1023.99999 1023.999927 957.183995 1023.999927 877.714286L1023.999927 475.4286 950.857075 475.4286 950.857075 877.714286 950.857075 877.714286ZM986.660501 6.3e-05 731.428519 6.3e-05C710.692521 0.036634 694.893665 16.786347 694.857093 36.571489 694.820522 56.35663 710.692521 73.179486 731.428519 73.142915L892.159936 71.972629 340.406833 598.198877C325.778262 612.132591 325.778262 634.69716 340.406833 648.630874 354.96226 662.564587 378.660544 662.564587 393.252543 648.630874L949.796504 117.833197 950.857075 292.571471C950.820504 312.356612 966.692502 329.179468 987.428501 329.142897 1008.164499 329.106325 1023.963355 312.356612 1023.999927 292.571471L1023.999927 35.657203C1024.036498 15.872062 1007.396499-0.036508 986.660501 6.3e-05L986.660501 6.3e-05Z" fill="#000000" p-id="30441"></path></svg>