<?xml version="1.0" standalone="no"?><!DOCTYPE svg PUBLIC "-//W3C//DTD SVG 1.1//EN" "http://www.w3.org/Graphics/SVG/1.1/DTD/svg11.dtd"><svg t="1761132888423" class="icon" viewBox="0 0 1024 1024" version="1.1" xmlns="http://www.w3.org/2000/svg" p-id="19216" xmlns:xlink="http://www.w3.org/1999/xlink" width="16" height="16"><path d="M470.016 298.016q-36 0-60.992 24.992T384.032 384v86.016q0 34.016 24.992 59.008t60.992 24.992h84v86.016H384v86.016h170.016q36 0 60.992-24.992T640 640.064v-86.016q0-34.016-24.992-59.008t-60.992-24.992h-84v-86.016h170.016V298.016h-170.016zM214.016 128h596q36 0 60.992 24.992T896 213.984v596q0 36-24.992 60.992t-60.992 24.992H214.016q-36 0-60.992-24.992t-24.992-60.992V213.984q0-36 24.992-60.992T214.016 128z" p-id="19217"></path></svg>