<?xml version="1.0" standalone="no"?><!DOCTYPE svg PUBLIC "-//W3C//DTD SVG 1.1//EN" "http://www.w3.org/Graphics/SVG/1.1/DTD/svg11.dtd"><svg t="1761132826966" class="icon" viewBox="0 0 1024 1024" version="1.1" xmlns="http://www.w3.org/2000/svg" p-id="18222" width="16" height="16" xmlns:xlink="http://www.w3.org/1999/xlink"><path d="M521.94 555.507c-41.25 0-74.68 33.43-74.68 74.68 0 29.72 17.511 55.18 42.674 67.188v82.139c0 17.659 14.346 32.006 32.005 32.006 17.66 0 32.006-14.347 32.006-32.006v-82.141c25.162-12.01 42.675-37.466 42.675-67.187 0-41.25-33.431-74.68-74.68-74.68z m309.356-149.33H191.28c-35.352 0-64.011 28.628-64.011 63.981v426.677c0 35.352 28.66 64.012 64.011 64.012h640.017c35.318 0 63.978-28.66 63.978-64.012V470.158c0.001-35.352-28.658-63.98-63.978-63.98z m0 447.984c0 35.352-7.322 42.675-42.675 42.675H233.92c-35.352 0-42.64-7.322-42.64-42.675V512.833c0-35.352 7.288-42.675 42.64-42.675H788.62c35.352 0 42.675 7.322 42.675 42.675v341.328zM208.867 373.975c17.769 0 32.219-14.161 32.706-31.812l0.067 0.004c28.924-122.258 138.526-213.339 269.631-213.339 102.48 0 191.683 55.771 239.629 138.476 4.989 11.293 16.28 19.178 29.42 19.178 17.758 0 32.153-14.396 32.153-32.155a32 32 0 0 0-5.926-18.589C747.562 133.69 637.63 64.815 511.271 64.815c-165.111 0-302.614 113.306-334.272 268.98-0.15 0.642-0.28 1.29-0.392 1.946-0.153 0.778-0.321 1.551-0.47 2.332l0.155 0.009c-0.1 1.04-0.154 2.095-0.154 3.162-0.001 18.078 14.652 32.731 32.729 32.731z" p-id="18223"></path></svg>